<svg xmlns="http://www.w3.org/2000/svg" width="64" height="64" xml:space="preserve"><path fill="#FC6E51" d="M54 28v13c0 12.15-9.85 22-22 22-12.149 0-22-9.85-22-22V17.99c0-1.65 1.34-3 3-3V15c7.74 0 14-6.26 14-14 14.92 0 27 12.08 27 27zm-4 13c0-9.939-8.06-18-18-18s-18 8.061-18 18c0 9.941 8.06 18 18 18s18-8.059 18-18z"/><circle fill="#FFCE54" cx="32" cy="41" r="18"/><path fill="#F6BB42" d="M32 23c-.677 0-1.343.045-2.001.117 8.996.997 15.997 8.62 15.997 17.883 0 9.264-7.001 16.886-15.997 17.883.658.072 1.324.117 2.001.117 9.94 0 18-8.059 18-18 0-9.939-8.06-18-18-18z"/><g><path d="M32 64C19.316 64 8.998 53.682 8.998 40.998a1 1 0 1 1 2 0C10.998 52.578 20.42 62 32 62s21.002-9.422 21.002-21.002a1 1 0 1 1 2 0C55.002 53.682 44.684 64 32 64z"/><path d="M53.997 41.998a1 1 0 0 1-1-1V28.002a1 1 0 1 1 2 0v12.996a1 1 0 0 1-1 1z"/><path d="M54.002 29.002a1 1 0 0 1-1-1C53.002 13.665 41.338 2 27 2a1 1 0 1 1 0-2c15.44 0 28.002 12.562 28.002 28.002a1 1 0 0 1-1 1z"/><path d="M13 16a1 1 0 1 1 0-2c7.168 0 13-5.832 13-13a1 1 0 1 1 2 0c0 8.271-6.729 15-15 15zM10.003 41.998a1 1 0 0 1-1-1V17.995a1 1 0 1 1 2 0v23.003a1 1 0 0 1-1 1z"/><path d="M10.003 18.996a1 1 0 0 1-1-1c0-2.206 1.794-4 4-4a1 1 0 1 1 0 2c-1.103 0-2 .897-2 2a1 1 0 0 1-1 1zM32 59.997c-10.477 0-19-8.523-19-19 0-10.476 8.523-18.999 19-18.999s19 8.523 19 18.999c0 10.477-8.523 19-19 19zm0-35.999c-9.374 0-17 7.625-17 16.999 0 9.374 7.626 17 17 17s17-7.626 17-17c0-9.373-7.626-16.999-17-16.999z"/><path d="M20.998 46a1 1 0 0 1-1-1v-6a1 1 0 1 1 2 0v6a1 1 0 0 1-1 1z"/><path d="M20.998 43a.999.999 0 0 1-.707-1.707l3-3a.999.999 0 1 1 1.414 1.414l-3 3a.997.997 0 0 1-.707.293z"/><path d="M23.998 46a.997.997 0 0 1-.707-.293l-3-3a.999.999 0 1 1 1.414-1.414l3 3A.999.999 0 0 1 23.998 46zM26.998 42a1 1 0 0 1-1-1c0-1.654 1.346-3 3-3 1.072 0 2.069.577 2.603 1.507a1 1 0 0 1-1.734.996 1 1 0 0 0-1.869.497 1 1 0 0 1-1 1z"/><path d="M28.998 46c-1.654 0-3-1.346-3-3a1 1 0 1 1 2 0 1 1 0 0 0 1.867.5.998.998 0 0 1 1.366-.362.997.997 0 0 1 .362 1.366A3.008 3.008 0 0 1 28.998 46z"/><path d="M26.998 44a1 1 0 0 1-1-1v-2a1 1 0 1 1 2 0v2a1 1 0 0 1-1 1zM33.5 46.001a1.002 1.002 0 0 1-.925-1.382l2.477-6.001a1.006 1.006 0 0 1 1.307-.543c.51.211.753.796.543 1.307l-2.477 6.001a1 1 0 0 1-.925.618z"/><path d="M38.501 46a1 1 0 0 1-.922-.612l-2.524-6a1 1 0 0 1 1.844-.776l2.524 6A1 1 0 0 1 38.501 46z"/><path d="M37.659 44.001h-3.333a1 1 0 1 1 0-2h3.333a1 1 0 1 1 0 2zM41.501 45.998a1 1 0 0 1-1-1v-6a1 1 0 1 1 2 0v6a1 1 0 0 1-1 1z"/><path d="M44.501 45.998h-3a1 1 0 1 1 0-2h3a1 1 0 1 1 0 2z"/></g></svg>